<svg xmlns="http://www.w3.org/2000/svg" viewBox="0 0 32 32"><g fill="none"><circle cx="16" cy="16" r="16" fill="#8d181b"/><path fill="#fff" d="M25.7 15.73c.72 0 1.3.57 1.3 1.28s-.58 1.27-1.3 1.27a1.3 1.3 0 0 1-1.22-.8h-3.72l-1.37 2.44c-.22.4-.84.28-.9-.18l-.3-2.6-1.14 8.45c-.08.56-.92.54-.96-.03l-.94-13.67-.99 9.06c-.06.54-.85.57-.95.03l-1.04-5.75-.49 1.9a.48.48 0 0 1-.46.35H6.48c-.27 0-.48-.21-.48-.47s.21-.47.48-.47h4.36l.94-3.67c.13-.5.85-.47.94.03l.85 4.67 1.22-11.15c.06-.57.92-.56.95.02l.99 14.34 1-7.53c.08-.55.9-.54.96.01l.59 4.92.78-1.4a.48.48 0 0 1 .42-.24h4a1.3 1.3 0 0 1 1.22-.8z"/></g></svg>